<?xml version="1.0" encoding="utf-8"?>
<!-- Generator: Adobe Illustrator 23.0.3, SVG Export Plug-In . SVG Version: 6.00 Build 0)  -->
<svg version="1.1" id="Layer_1" xmlns="http://www.w3.org/2000/svg" xmlns:xlink="http://www.w3.org/1999/xlink" x="0px" y="0px"
	 viewBox="0 0 4564.35 4000" style="enable-background:new 0 0 4564.35 4000;" xml:space="preserve">
<style type="text/css">
	.st0{fill:none;stroke:#FFFFFF;stroke-width:23.959;stroke-miterlimit:10;}
</style>
<g>
	<g>
		<polyline class="st0" points="2038.04,2218.92 1295.61,2640.8 1035.36,2681.72 582.13,2470.09 630.05,2236.49 1037.35,1811.22 
			1528.51,1571.63 2001.7,1661.48 2466.91,1996.9 		"/>
		<polyline class="st0" points="2038.04,2218.92 1808.72,2023.86 1617.05,1983.92 1229.05,2160.64 1085.3,2496.06 1125.21,2583.9 
			1295.61,2640.8 		"/>
		<polyline class="st0" points="2038.04,2218.92 2564.74,1948.98 3205.64,1637.52 3762.69,1715.39 4044.21,2122.69 4038.22,2571.92 
			3660.86,2859.43 3181.68,2901.35 2768.39,2727.65 2474.89,2537.31 		"/>
		<polyline class="st0" points="582.13,2472.08 761.82,2997.19 1079.28,3158.91 1552.47,3134.96 2474.89,2537.31 2798.34,2308.37 		
			"/>
		<polyline class="st0" points="2798.34,2314.36 3141.74,2472.08 3473.19,2512.02 3696.8,2392.88 3547.06,2104.72 3192.33,2086.09 
			2792.35,2308.37 		"/>
		<polyline class="st0" points="3192.33,2086.09 2439.65,2475.08 2032.35,2734.65 1552.47,3134.96 		"/>
		<polyline class="st0" points="1512.53,1577.62 1664.96,1342.01 1682.26,1118.4 1752.82,937.7 		"/>
		<polyline class="st0" points="2001.7,1547.67 1959.77,1290.11 1832,1194.28 1736.16,1385.92 1514.54,1579.61 		"/>
		<line class="st0" x1="1771.8" y1="1893.07" x2="1617.05" y2="1983.92"/>
		<polyline class="st0" points="1229.05,2160.64 1391.45,1984.92 1771.8,1893.07 		"/>
		<line class="st0" x1="2462.91" y1="1996.9" x2="1771.8" y2="1893.07"/>
		<polyline class="st0" points="1085.27,2500.04 759.53,2189.56 630.05,2236.49 		"/>
		<polyline class="st0" points="1035.36,2681.72 677.97,2396.23 759.53,2189.56 1113.23,1825.21 1528.51,1571.63 		"/>
		<line class="st0" x1="1079.28" y1="3158.91" x2="1093.95" y2="3074.05"/>
		<polyline class="st0" points="1552.47,3130.95 1093.95,3082.05 582.13,2472.08 		"/>
		<polyline class="st0" points="3475.18,2512.02 3672.84,2492.04 3697.5,2384.22 		"/>
		<polyline class="st0" points="3469.19,2512.02 3077.87,2544.96 2790.36,2312.37 		"/>
		<polyline class="st0" points="3660.86,2859.43 3960.35,2528 3992.29,2116.7 3762.69,1715.39 		"/>
		<line class="st0" x1="4044.21" y1="2122.69" x2="3992.29" y2="2116.7"/>
		<line class="st0" x1="2038.04" y1="2218.92" x2="1771.8" y2="1893.07"/>
		<line class="st0" x1="1391.45" y1="1988.9" x2="1113.23" y2="1825.21"/>
		<line class="st0" x1="1037.35" y1="1811.22" x2="1103.24" y2="1827.2"/>
		<polyline class="st0" points="1229.02,2156.64 1175.82,2093.72 1103.24,1835.18 		"/>
		<polyline class="st0" points="1297.6,2638.79 1485.27,3030.14 1552.47,3118.98 		"/>
		<polyline class="st0" points="2439.65,2475.08 2558.75,2078.75 3205.64,1637.52 		"/>
		<polyline class="st0" points="3077.87,2544.96 2874.19,2687.71 2766.38,2723.65 		"/>
		<polyline class="st0" points="2028.35,2738.63 1687.94,2860.41 1297.6,2638.79 		"/>
		<polyline class="st0" points="2558.75,2078.75 2155.45,2260.45 1313.58,2634.79 		"/>
		<polyline class="st0" points="1787.76,912.76 1658.3,1008.6 1536.49,1146.36 		"/>
		<polyline class="st0" points="1897.86,818.93 1948.52,766.01 1954.49,652.25 1868.29,610.25 1823.69,677.19 1859.68,748.04 
			1847.96,804.94 		"/>
		<polyline class="st0" points="3192.33,2086.09 3608.94,2004.88 3992.29,2116.7 		"/>
		<line class="st0" x1="1808.72" y1="2023.86" x2="1771.8" y2="1893.07"/>
		<line class="st0" x1="3688.52" y1="2402.19" x2="3992.29" y2="2116.7"/>
		<polyline class="st0" points="4038.22,2571.92 3960.35,2524 3505.13,2807.51 3181.68,2901.35 		"/>
		<line class="st0" x1="2038.04" y1="2218.92" x2="2161.41" y2="2258.46"/>
		<line class="st0" x1="1117.21" y1="2583.9" x2="1035.36" y2="2681.72"/>
		<line class="st0" x1="3145.74" y1="2472.08" x2="3069.87" y2="2548.97"/>
		<line class="st0" x1="3608.94" y1="2004.88" x2="3547.06" y2="2104.72"/>
		<line class="st0" x1="1687.94" y1="2860.41" x2="1552.47" y2="3115"/>
		<line class="st0" x1="677.97" y1="2396.23" x2="582.13" y2="2472.08"/>
		<line class="st0" x1="1489.27" y1="3030.14" x2="1089.95" y2="3082.03"/>
		<polyline class="st0" points="3185.66,2895.37 2874.19,2687.71 2474.89,2537.31 		"/>
		<line class="st0" x1="3956.35" y1="2528" x2="3668.84" y2="2492.06"/>
		<line class="st0" x1="3660.86" y1="2851.45" x2="3505.13" y2="2807.51"/>
		<line class="st0" x1="2001.7" y1="1661.48" x2="1771.8" y2="1893.07"/>
		<line class="st0" x1="1175.82" y1="2093.72" x2="1089.27" y2="2488.06"/>
		<polyline class="st0" points="2001.7,1547.67 2039.63,1254.18 1932.51,1119.41 1953.78,1002.61 2002.4,1036.53 2160.43,972.66 
			2160.43,964.68 2023.65,974.65 1963.75,834.89 1770.09,792.96 1646.32,936.72 1530.52,1144.35 		"/>
		<polyline class="st0" points="1956.78,843.88 1888.6,898.77 1832,1194.28 		"/>
		<line class="st0" x1="1774.82" y1="793.95" x2="1787.76" y2="912.76"/>
		<line class="st0" x1="1932.51" y1="1119.41" x2="1888.6" y2="898.77"/>
		<line class="st0" x1="1959.77" y1="1290.11" x2="1932.51" y2="1119.41"/>
		<line class="st0" x1="1736.16" y1="1385.92" x2="1666.98" y2="1342.01"/>
		<line class="st0" x1="1830.99" y1="1197.27" x2="1682.26" y2="1118.4"/>
		<line class="st0" x1="1648.3" y1="933.72" x2="1660.29" y2="1014.58"/>
		<line class="st0" x1="2023.65" y1="974.65" x2="2002.4" y2="1036.53"/>
		<line class="st0" x1="1954.49" y1="652.25" x2="1859.68" y2="748.04"/>
		<line class="st0" x1="1888.6" y1="898.77" x2="1784.76" y2="909.76"/>
		<line class="st0" x1="1962.77" y1="837.89" x2="1953.78" y2="1005.6"/>
		<line class="st0" x1="2552.76" y1="2074.77" x2="2466.91" y2="1998.92"/>
		<line class="st0" x1="2033.64" y1="1260.17" x2="1959.77" y2="1290.11"/>
		<line class="st0" x1="1888.6" y1="898.77" x2="1845.97" y2="804.94"/>
		<line class="st0" x1="3973.03" y1="2107.71" x2="3214.32" y2="1640.52"/>
	</g>
</g>
</svg>
