<svg id="레이어_1" data-name="레이어 1" xmlns="http://www.w3.org/2000/svg" xmlns:xlink="http://www.w3.org/1999/xlink" viewBox="0 0 56 140"><defs><style>.cls-1{fill:url(#무제_그라디언트_48);}.cls-2{fill:url(#무제_그라디언트_37);}.cls-3{fill:url(#무제_그라디언트_19);}.cls-4{fill:url(#무제_그라디언트_9);}</style><linearGradient id="무제_그라디언트_48" x1="9.75" y1="6.55" x2="45.74" y2="49.44" gradientUnits="userSpaceOnUse"><stop offset="0" stop-color="#364fdc"/><stop offset="1" stop-color="#b6cee8"/></linearGradient><linearGradient id="무제_그라디언트_37" x1="41.75" y1="49" x2="41.75" y2="91" gradientUnits="userSpaceOnUse"><stop offset="0.51" stop-color="#b7f8db"/><stop offset="1" stop-color="#50a7c2"/></linearGradient><linearGradient id="무제_그라디언트_19" x1="13.75" y1="133" x2="13.75" y2="91" gradientUnits="userSpaceOnUse"><stop offset="0" stop-color="#b7f8db"/><stop offset="1" stop-color="#50a7c2"/></linearGradient><linearGradient id="무제_그라디언트_9" x1="55.75" y1="91" x2="-0.25" y2="91" gradientUnits="userSpaceOnUse"><stop offset="0" stop-color="#f578dc"/><stop offset="1" stop-color="#fbae17"/></linearGradient></defs><title>logo</title><path class="cls-1" d="M13.75,28a14,14,0,1,1,14,14,27.89,27.89,0,0,1,18.51,7,28,28,0,1,0-37,0,27.89,27.89,0,0,1,18.51-7A14,14,0,0,1,13.75,28Z" transform="translate(0.25 0)"/><path class="cls-2" d="M55.75,70a27.9,27.9,0,0,0-9.49-21,27.89,27.89,0,0,1-18.51,7,14,14,0,0,1,0,28,27.89,27.89,0,0,1,18.51,7A27.9,27.9,0,0,0,55.75,70Z" transform="translate(0.25 0)"/><path class="cls-3" d="M13.75,112a14,14,0,0,1,14-14A27.89,27.89,0,0,1,9.24,91a28,28,0,0,0,0,42,27.89,27.89,0,0,1,18.51-7A14,14,0,0,1,13.75,112Z" transform="translate(0.25 0)"/><path class="cls-4" d="M46.26,91a27.89,27.89,0,0,0-18.51-7,14,14,0,0,1,0-28,27.89,27.89,0,0,0,18.51-7A28,28,0,1,0,27.75,98a14,14,0,0,1,0,28,27.89,27.89,0,0,0-18.51,7,28,28,0,1,0,37-42Z" transform="translate(0.25 0)"/></svg>