<?xml version="1.0" encoding="utf-8"?>
<!-- Generator: Adobe Illustrator 23.0.3, SVG Export Plug-In . SVG Version: 6.00 Build 0)  -->
<svg version="1.1" id="Layer_1" xmlns="http://www.w3.org/2000/svg" xmlns:xlink="http://www.w3.org/1999/xlink" x="0px" y="0px"
	 viewBox="0 0 3340.66 5000" style="enable-background:new 0 0 3340.66 5000;" xml:space="preserve">
<style type="text/css">
	.st0{fill:none;stroke:#FFFFFF;stroke-width:21.5;stroke-miterlimit:10;}
</style>
<g>
	<polyline class="st0" points="1465.73,2661 1480.53,2435.4 1540.7,2167.83 1662.9,1664.55 1757.8,1400.09 1939.14,1186.52 
		2239.65,867.81 2400.39,721.6 2464.56,755.87 2487.78,985.29 2510.14,1368.53 2469.51,1729.84 2297.74,2192.93 1985.72,2719.63 
		1908.03,2829.31 	"/>
	<polygon class="st0" points="2242.85,3195.06 2350.47,3115.46 2494.71,2916.93 2556.95,2673.82 2556.88,2511.85 2510.32,2276.02 
		2370.88,2385.1 2258.36,2513.38 2106.7,2787.03 2066.31,2943.53 2059.74,3051.8 2112.45,3154.66 	"/>
	<polygon class="st0" points="1154.13,2724.02 1270.92,2590.31 1383.14,2309.47 1392.67,2045.4 1322.75,1800.97 1148.18,1980.62 
		1042.64,2173.36 996.48,2413.56 998.02,2580.46 1007.97,2664.86 1060.86,2724.68 	"/>
	<polygon class="st0" points="2260.71,1873.22 2159.73,1616.54 1982.76,1577.28 1807.1,1603.47 1709.51,1871.95 1823.63,2086 
		2033.52,2148.78 2258.45,1994.66 	"/>
	<polygon class="st0" points="2179.63,1945.33 2214.46,1875.64 2137.45,1654.99 1994.18,1622.88 1831.34,1668.96 1777.12,1876.26 
		1877.62,2054.93 2016.97,2060.31 	"/>
	<polyline class="st0" points="1403.44,2777.67 1068.45,3043.84 936.11,3232.81 1041.14,3259.29 924.06,3486.58 771.81,3888.68 
		918.47,3854.66 909.39,4146.46 798,4529.69 1053.22,4330.7 1308.98,4036.06 1399.7,4174.02 1547.64,3870.52 1617.03,3966.91 
		1777.75,3503.61 1875.25,3539.76 1882.76,3200.63 1865.2,2955.52 	"/>
	<polyline class="st0" points="1400.99,2777.63 1231.18,3002.68 1134.18,3198.5 1156.55,3289.02 970.11,3624.93 1035.58,3704.23 
		971.6,4000.98 1310.26,3901.11 1622.51,3737.55 1617.37,3668.14 1741.79,3326.28 1751.25,3223.53 1745.53,2990.14 	"/>
	<polyline class="st0" points="1939.14,1186.52 2047.5,1128.15 2218.54,1113.08 2457.56,1233.22 2509.41,1364.31 	"/>
	<polyline class="st0" points="2239.65,867.81 2321.02,850.03 2442.81,899.7 2486.95,986.58 	"/>
	<polyline class="st0" points="1757.8,1400.09 1877.57,1371.15 2174.44,1386.95 2396.31,1604.39 2469.51,1729.84 	"/>
	<polyline class="st0" points="1481.02,2431.2 1522.52,2576.2 1628.76,2670.15 1861.61,2727.88 1981.18,2722.12 	"/>
	<polyline class="st0" points="1543.45,2141.58 1572.75,2254.26 1691.15,2411.22 1970.3,2472.17 2151.94,2446.69 	"/>
	<polyline class="st0" points="2258.36,2513.38 2302.72,2592.67 2418.46,2667.31 2500.1,2682.55 2556.95,2673.82 	"/>
	<polyline class="st0" points="2106.7,2787.03 2188.7,2876.4 2408.14,2923.68 2494.71,2916.93 	"/>
	<polyline class="st0" points="2350.47,3115.46 2284.76,3111.05 2137.19,3044.08 2067.41,2950.84 	"/>
	<polyline class="st0" points="1913.66,2823.88 1947.26,2898.14 1861.44,2960.34 1745.53,2990.14 1544.92,2956.97 1442.07,2870.57 
		1402.84,2777.63 1400.46,2707.64 1469.42,2661.07 1500.67,2696.05 1610.89,2774.11 	"/>
	<polyline class="st0" points="1982.76,1577.28 1877.57,1371.15 2047.5,1128.15 2321.02,850.03 2401.08,719.96 	"/>
	<line class="st0" x1="1655.12" y1="1686.48" x2="1807.1" y2="1603.47"/>
	<polyline class="st0" points="2459.27,757.85 2442.81,899.7 2457.56,1233.22 2396.31,1604.39 2260.71,1873.22 	"/>
	<polyline class="st0" points="2159.73,1616.54 2174.44,1386.95 2218.54,1113.08 2321.02,850.03 	"/>
	<line class="st0" x1="1807.1" y1="1603.47" x2="1877.57" y2="1371.15"/>
	<line class="st0" x1="2137.45" y1="1654.99" x2="2159.73" y2="1616.54"/>
	<line class="st0" x1="1994.18" y1="1622.88" x2="1982.76" y2="1577.28"/>
	<line class="st0" x1="1831.34" y1="1668.96" x2="1807.1" y2="1603.47"/>
	<line class="st0" x1="1709.51" y1="1871.95" x2="1777.12" y2="1876.26"/>
	<line class="st0" x1="1823.63" y1="2086" x2="1877.62" y2="2054.93"/>
	<line class="st0" x1="2179.63" y1="1945.33" x2="2258.45" y2="1994.66"/>
	<line class="st0" x1="2214.46" y1="1875.64" x2="2260.71" y2="1873.22"/>
	<polyline class="st0" points="2016.97,2060.31 2033.52,2148.78 1970.3,2472.17 1863.26,2729.75 1806.6,2840.31 1790.6,2909.4 	"/>
	<polyline class="st0" points="1709.51,1871.95 1572.75,2254.26 1522.52,2576.2 1500.67,2696.05 1439.79,2757.08 	"/>
	<polyline class="st0" points="1824.21,2087.85 1691.15,2411.22 1636.19,2666.61 1610.89,2774.11 1545.16,2840.79 	"/>
	<line class="st0" x1="2297.74" y1="2192.93" x2="2258.45" y2="1994.66"/>
	<line class="st0" x1="1656.8" y1="1685.36" x2="1709.51" y2="1871.95"/>
	<line class="st0" x1="1545.18" y1="2147.12" x2="1709.51" y2="1871.95"/>
	<line class="st0" x1="2151.94" y1="2446.69" x2="2258.45" y2="1994.66"/>
	<line class="st0" x1="2258.45" y1="1994.66" x2="2471.45" y2="1724.36"/>
	<polyline class="st0" points="2110.76,3146.67 2137.19,3044.08 2188.7,2876.4 2302.72,2592.67 2386.25,2449.8 2512,2285.25 	"/>
	<polyline class="st0" points="2510.6,2293.81 2486.66,2494 2418.46,2667.31 2408.14,2923.68 2284.76,3111.05 2239.81,3194.41 	"/>
	<polyline class="st0" points="1042.64,2173.36 1089.69,2227.09 1309.44,2321.59 1383.14,2309.47 	"/>
	<polyline class="st0" points="1148.18,1980.62 1156.24,2046.36 1347.26,2068.29 1392.67,2045.4 	"/>
	<polyline class="st0" points="994.61,2426.2 1036.2,2466.59 1207.71,2540.33 1270.92,2590.31 	"/>
	<polyline class="st0" points="998.02,2580.46 1069.94,2631.9 1174.85,2631.99 1270.92,2590.31 	"/>
	<polyline class="st0" points="1322.75,1800.97 1156.24,2046.36 1089.69,2227.09 1036.2,2466.59 1069.94,2631.9 1060.86,2724.68 	
		"/>
	<polyline class="st0" points="1322.75,1800.97 1347.26,2068.29 1309.44,2321.59 1207.71,2540.33 1174.85,2631.99 1154.13,2724.02 	
		"/>
	<polyline class="st0" points="1947.26,2898.14 1788.78,2907.53 1545.16,2840.79 1432.44,2756.95 1400.46,2707.64 	"/>
	<polyline class="st0" points="1751.25,3223.53 1376.98,3677.81 1310.26,3901.11 	"/>
	<polyline class="st0" points="1035.58,3704.23 1182.26,3590.82 1206.29,3353.22 1415.9,3017.38 1544.92,2956.97 	"/>
	<line class="st0" x1="1041.14" y1="3259.29" x2="1134.18" y2="3198.5"/>
	<polyline class="st0" points="1068.45,3043.84 1104.83,3066.59 1038.68,3260.48 	"/>
	<line class="st0" x1="1777.75" y1="3503.61" x2="1741.79" y2="3326.28"/>
	<line class="st0" x1="1882.76" y1="3200.63" x2="1745.53" y2="2990.14"/>
	<line class="st0" x1="1206.29" y1="3353.22" x2="1310.72" y2="3303.06"/>
	<polyline class="st0" points="1376.98,3677.81 1310.79,3299.38 1415.9,3017.38 	"/>
	<line class="st0" x1="918.47" y1="3854.66" x2="970.11" y2="3624.93"/>
	<line class="st0" x1="909.39" y1="4146.46" x2="971.6" y2="4000.98"/>
	<polyline class="st0" points="1053.22,4330.7 979.44,4273.53 971.6,4000.98 	"/>
	<line class="st0" x1="1402.23" y1="4053.59" x2="1310.26" y2="3901.11"/>
	<line class="st0" x1="924.06" y1="3486.58" x2="1134.18" y2="3198.5"/>
	<line class="st0" x1="1548.28" y1="3869.93" x2="1622.51" y2="3737.55"/>
	<line class="st0" x1="1617.37" y1="3668.14" x2="1376.98" y2="3677.81"/>
	<polyline class="st0" points="1777.91,3495.02 1849,3433.76 1750.07,3221.07 	"/>
	<line class="st0" x1="801.89" y1="4518.72" x2="979.44" y2="4273.53"/>
	<line class="st0" x1="1399.7" y1="4174.02" x2="1402.23" y2="4053.59"/>
	<line class="st0" x1="914.81" y1="3853.37" x2="924.13" y2="3482.9"/>
	<line class="st0" x1="1182.26" y1="3590.82" x2="1310.26" y2="3901.11"/>
	<line class="st0" x1="1157.76" y1="3290.29" x2="1206.29" y2="3353.22"/>
	<line class="st0" x1="1989.28" y1="1621.56" x2="2059.34" y2="1814.28"/>
	<line class="st0" x1="1777.12" y1="1876.26" x2="2059.34" y2="1814.28"/>
	<line class="st0" x1="1877.62" y1="2054.93" x2="2059.34" y2="1814.28"/>
	<line class="st0" x1="2214.46" y1="1875.64" x2="2059.34" y2="1814.28"/>
	<line class="st0" x1="2137.45" y1="1654.99" x2="2059.34" y2="1814.28"/>
	<line class="st0" x1="2137.45" y1="1654.99" x2="2178.45" y2="1941.64"/>
	<polyline class="st0" points="1610.89,2774.11 1806.6,2840.31 1913.55,2829.41 	"/>
	<line class="st0" x1="1540.73" y1="2951.38" x2="1545.16" y2="2840.79"/>
	<line class="st0" x1="1745.53" y1="2990.14" x2="1788.78" y2="2907.53"/>
	<line class="st0" x1="1437.89" y1="2760.72" x2="1442.07" y2="2870.57"/>
	<polyline class="st0" points="2370.88,2385.1 2386.25,2449.8 2486.66,2494 2554.83,2489.73 	"/>
	<line class="st0" x1="1306.59" y1="3900.43" x2="1307.79" y2="4034.81"/>
	<line class="st0" x1="1622.49" y1="3738.77" x2="1614.85" y2="3952.15"/>
	<line class="st0" x1="1849" y1="3433.76" x2="1882.76" y2="3200.63"/>
	<polyline class="st0" points="936.11,3232.81 1104.83,3066.59 1231.18,3002.68 	"/>
	<line class="st0" x1="1876.53" y1="3537.34" x2="1849" y2="3433.76"/>
	<line class="st0" x1="1412.16" y1="3020.99" x2="1442.07" y2="2870.57"/>
	<line class="st0" x1="1402.23" y1="4053.59" x2="1548.24" y2="3871.77"/>
	<polyline class="st0" points="2408.14,2923.68 2500.1,2682.55 2486.66,2494 	"/>
	<line class="st0" x1="1305.95" y1="4034.78" x2="1402.23" y2="4053.59"/>
	<line class="st0" x1="2151.94" y1="2446.69" x2="2258.36" y2="2513.38"/>
	<line class="st0" x1="2297.23" y1="2186.8" x2="2258.36" y2="2513.38"/>
	<line class="st0" x1="1983.64" y1="2722.12" x2="2106.7" y2="2787.03"/>
	<line class="st0" x1="1913.62" y1="2825.74" x2="2106.7" y2="2787.03"/>
	<line class="st0" x1="1460.27" y1="2657.22" x2="1270.92" y2="2590.31"/>
	<line class="st0" x1="1484.61" y1="2436.8" x2="1388.83" y2="2308.34"/>
	<line class="st0" x1="1545.32" y1="2139.78" x2="1383.37" y2="2304.56"/>
	<polyline class="st0" points="2389.44,732.08 2535.3,423.14 2544.9,469.34 2461.73,757.89 	"/>
	<line class="st0" x1="980.6" y1="4276.69" x2="1308.97" y2="4037.34"/>
	<polyline class="st0" points="2243.5,3193.24 2229.33,3362.32 2167.38,3336.58 2087.43,3478.67 2055.75,3400.77 1985.62,3410.52 
		2025.56,3241.93 1996.46,3222.98 2059.74,3051.8 	"/>
	<polyline class="st0" points="1151.59,2728.8 1141.77,2861.15 1105.25,2845.74 1054.9,2981.01 1011,2965.47 872.39,3095.43 
		909.4,2886.28 876.55,2870.96 963.5,2747.4 941.63,2735.97 1009.16,2667.26 	"/>
	<line class="st0" x1="2025.56" y1="3241.93" x2="2110.13" y2="3147.79"/>
	<line class="st0" x1="2055.75" y1="3400.77" x2="2106.28" y2="3156.92"/>
	<line class="st0" x1="2169.25" y1="3334.77" x2="2111.87" y2="3153.33"/>
	<polyline class="st0" points="1011,2965.47 1027.86,2849.84 1061.53,2721.61 	"/>
	<polyline class="st0" points="911.21,2888.17 988.41,2793.88 1057.78,2725.23 	"/>
	<line class="st0" x1="965.38" y1="2745.6" x2="1009.16" y2="2667.26"/>
	<line class="st0" x1="1105.28" y1="2843.9" x2="1149.81" y2="2725.08"/>
	<line class="st0" x1="1027.86" y1="2849.84" x2="988.41" y2="2793.88"/>
</g>
</svg>
