<?xml version="1.0" encoding="utf-8"?>
<!-- Generator: Adobe Illustrator 23.0.3, SVG Export Plug-In . SVG Version: 6.00 Build 0)  -->
<svg version="1.1" id="Layer_1" xmlns="http://www.w3.org/2000/svg" xmlns:xlink="http://www.w3.org/1999/xlink" x="0px" y="0px"
	 viewBox="0 0 4000 4000" style="enable-background:new 0 0 4000 4000;" xml:space="preserve">
<style type="text/css">
	.st0{fill:none;stroke:#FFFFFF;stroke-width:16.9783;stroke-miterlimit:10;}
</style>
<g>
	<g>
		<polyline class="st0" points="1975.77,1511.37 1963.75,1412.32 1957.38,1265.88 1944.06,954.14 1935.07,895.28 		"/>
		<polyline class="st0" points="2008.32,899.44 2003.11,1027.59 2033.79,1352.2 2039.44,1478.11 		"/>
		<polyline class="st0" points="2268.32,1024.97 2209.11,934.44 2099.58,896.6 1929.8,894.48 		"/>
		<polyline class="st0" points="2173.51,926.45 2116.56,1049.41 2235.41,1136.42 2384.78,1194.95 2545.26,1340.16 2541.5,1275.77 
			2482.04,1144.81 2400.07,1038.33 2582.6,964.14 2592.02,943.1 2454.2,910.15 2347.37,850.05 		"/>
		<polyline class="st0" points="2118.96,1044.82 2268.32,1024.97 2406.27,708.02 2326.4,647.64 2198.71,625 2085.97,544.44 
			1918.59,565.25 1890.85,582.66 1912.27,896.44 1934.8,897.02 		"/>
		<line class="st0" x1="2209.11" y1="934.44" x2="2198.71" y2="625"/>
		<polyline class="st0" points="2326.4,647.64 2271.24,836.9 2209.11,934.44 		"/>
		<line class="st0" x1="2099.58" y1="896.6" x2="2085.97" y2="544.44"/>
		<line class="st0" x1="1918.59" y1="565.25" x2="1942.03" y2="672.89"/>
		<line class="st0" x1="2003.11" y1="1027.59" x2="1944.06" y2="954.14"/>
		<line class="st0" x1="1975.77" y1="1511.37" x2="2033.79" y2="1352.2"/>
		<line class="st0" x1="2384.78" y1="1194.95" x2="2397.83" y2="1035.32"/>
		<polyline class="st0" points="2235.41,1136.42 2328.21,1026.71 2403.1,1036.1 		"/>
		<polyline class="st0" points="2099.58,896.6 2018.97,638.58 1921.86,567.54 		"/>
		<line class="st0" x1="1942.03" y1="672.89" x2="2099.58" y2="896.6"/>
		<line class="st0" x1="1957.38" y1="1265.88" x2="2000.88" y2="1024.56"/>
		<line class="st0" x1="2328.21" y1="1026.71" x2="2344.75" y2="849.65"/>
		<line class="st0" x1="2405.87" y1="710.67" x2="2271.24" y2="836.9"/>
		<line class="st0" x1="2018.83" y1="639.44" x2="2082.95" y2="546.68"/>
		<line class="st0" x1="1934.67" y1="897.9" x2="1942.03" y2="672.89"/>
		<line class="st0" x1="2582.6" y1="964.14" x2="2519.79" y2="953.91"/>
		<polyline class="st0" points="2454.2,910.15 2519.79,953.91 2328.21,1026.71 		"/>
		<line class="st0" x1="2482.04" y1="1144.81" x2="2384.78" y2="1194.95"/>
		<line class="st0" x1="2541.5" y1="1275.77" x2="2384.78" y2="1194.95"/>
	</g>
	<polyline class="st0" points="3055.32,3282.06 2802.06,3061.34 2684.62,2894.39 	"/>
	<polyline class="st0" points="3025.61,3344.32 2834.6,3168.88 2574.26,2950.98 	"/>
	<line class="st0" x1="2529" y1="2801.01" x2="2175.98" y2="2668.72"/>
	<line class="st0" x1="2478.06" y1="2847.7" x2="2162.54" y2="2742.3"/>
	<polyline class="st0" points="2087.56,2625.57 2109.13,2406.98 2102.42,2092.17 	"/>
	<polyline class="st0" points="2042.28,2116.22 2036.62,2243.56 2059.26,2427.49 2025.3,2649.62 	"/>
	<polyline class="st0" points="2052.89,1928.04 2019.28,1801.76 2031.66,1664.88 	"/>
	<line class="st0" x1="1946.06" y1="1647.9" x2="1987.1" y2="1951.38"/>
	<polyline class="st0" points="2024.59,1524.8 2039.44,1469.62 2087.56,1516.31 2195.08,1816.27 2342.23,2042.64 2370.52,2274.68 
		2500.69,2370.9 2551.63,2619.91 2908.17,2829.32 3208.13,3089.64 3445.82,3236.79 3534.96,3378.28 	"/>
	<polyline class="st0" points="1484.11,3517.63 1612.17,3191.52 1751.52,3105.91 1834.29,2817.28 	"/>
	<polyline class="st0" points="668.44,3604.65 1078.76,3198.59 1057.54,3129.25 1370.23,2601.52 1634.8,2506.73 1888.76,2324.91 	
		"/>
	<polygon class="st0" points="3056.73,3284.18 3128.89,3282.06 3184.07,3381.81 3145.87,3439.11 3035.51,3430.62 3024.9,3341.48 	
		"/>
	<polygon class="st0" points="2570.73,2953.1 2478.06,2847.7 2528.28,2800.3 2628.03,2758.57 2686.74,2894.39 	"/>
	<polygon class="st0" points="2110.19,2772.71 2025.3,2747.24 2025.3,2653.86 2127.17,2607.17 2173.86,2666.59 2163.25,2745.12 	"/>
	<polygon class="st0" points="2101.7,2093.58 2038.03,2119.04 1944.65,2063.87 1984.98,1955.63 2055.01,1932.28 2122.92,2023.54 	
		"/>
	<polygon class="st0" points="2033.79,1660.63 1940.41,1646.49 1919.2,1561.59 1975.77,1511.37 2026.71,1524.8 2062.09,1595.55 	"/>
	<polyline class="st0" points="1634.8,2506.73 1668.04,2276.81 1791.85,2055.38 1859.76,1773.11 	"/>
	<polyline class="st0" points="1776.28,1804.95 1859.76,1773.11 1942.53,1647.9 	"/>
	<line class="st0" x1="1465.02" y1="2291.66" x2="1668.04" y2="2276.81"/>
	<line class="st0" x1="1595.19" y1="2172.82" x2="1791.85" y2="2055.38"/>
	<line class="st0" x1="1322.82" y1="2411.92" x2="1049.05" y2="2636.88"/>
	<polyline class="st0" points="1210.34,2421.83 1324.94,2407.68 1668.04,2276.81 	"/>
	<line class="st0" x1="1612.17" y1="3191.52" x2="1634.8" y2="2506.73"/>
	<polyline class="st0" points="1327.07,2407.68 955.67,2840.62 842.47,2812.33 	"/>
	<line class="st0" x1="3126.77" y1="3279.94" x2="2908.17" y2="2830.01"/>
	<polyline class="st0" points="2551.63,2624.15 2369.11,2387.51 2370.52,2274.68 	"/>
	<polyline class="st0" points="2369.11,2387.51 2254.51,2178.47 2195.08,1816.27 	"/>
	<line class="st0" x1="2366.99" y1="2269.73" x2="2254.51" y2="2178.47"/>
	<polyline class="st0" points="3591.55,3411.52 3281.7,3226.88 3208.13,3089.64 	"/>
	<polyline class="st0" points="2655.62,3468.82 2547.38,3405.15 2477.35,3237.49 1883.82,2914.21 1834.29,2817.28 1889.47,2329.15 
		1904.33,2178.47 1944.65,2063.87 	"/>
	<polyline class="st0" points="2165.37,2743 2483.71,3239.61 2602.56,3332.99 2655.62,3468.82 2687.45,3566.45 	"/>
	<line class="st0" x1="2526.16" y1="2798.18" x2="2551.63" y2="2619.91"/>
	<line class="st0" x1="2526.16" y1="2789.69" x2="2109.13" y2="2406.98"/>
	<line class="st0" x1="1889.47" y1="2329.15" x2="2040.16" y2="2121.17"/>
	<line class="st0" x1="2190.84" y1="1817.68" x2="2052.89" y2="1930.16"/>
	<line class="st0" x1="2568.61" y1="2948.86" x2="2602.56" y2="3332.99"/>
	<line class="st0" x1="1612.17" y1="3191.52" x2="1078.76" y2="3198.59"/>
	<line class="st0" x1="955.67" y1="2840.62" x2="1051.17" y2="2632.64"/>
	<line class="st0" x1="1055.41" y1="3127.13" x2="664.91" y2="3130.5"/>
	<line class="st0" x1="2059.26" y1="2427.49" x2="1834.29" y2="2817.28"/>
	<line class="st0" x1="2110.19" y1="2772.71" x2="1880.98" y2="2910.66"/>
	<line class="st0" x1="2025.3" y1="2747.24" x2="1834.29" y2="2817.28"/>
	<line class="st0" x1="2129.29" y1="2607.17" x2="2112.31" y2="2407.68"/>
	<line class="st0" x1="2256.63" y1="2182.71" x2="2122.92" y2="2023.54"/>
	<line class="st0" x1="2190.84" y1="1817.68" x2="2062.09" y2="1595.55"/>
	<line class="st0" x1="2019.28" y1="1801.76" x2="1987.1" y2="1953.51"/>
	<line class="st0" x1="2059.26" y1="2431.02" x2="2108.07" y2="2407.68"/>
	<line class="st0" x1="2795.69" y1="3054.97" x2="2834.6" y2="3168.88"/>
	<line class="st0" x1="3483.31" y1="3617.38" x2="3184.07" y2="3381.81"/>
	<g>
		<polyline class="st0" points="1917.04,566.77 1851.04,467.22 1885.76,383.24 1957.44,388.3 1993.23,438.84 1965.44,558 		"/>
		<line class="st0" x1="1900.37" y1="454.74" x2="1885.76" y2="383.24"/>
		<polyline class="st0" points="1993.23,438.84 1900.27,458 1857.56,467.39 		"/>
		<line class="st0" x1="1955.26" y1="388.25" x2="1900.32" y2="455.83"/>
	</g>
	<polyline class="st0" points="3585.89,3409.4 3442.99,3451.84 3481.19,3615.97 	"/>
	<polyline class="st0" points="3478.35,3614.56 3164.26,3484.39 2687.45,3570.69 2534.65,3480.14 2080.48,3335.83 1486.24,3516.94 
		962.75,3487.22 	"/>
	<polyline class="st0" points="1080.17,3197.17 959.91,3485.8 662.79,3608.89 	"/>
	<polyline class="st0" points="668.44,3603.24 648.65,3456.09 490.88,3386.05 502.21,3250.23 664.91,3130.5 842.47,2812.33 
		1002.35,2609.29 1049.05,2636.88 1210.34,2421.83 1385.78,2302.99 1465.02,2291.66 1595.19,2172.82 1776.28,1804.95 
		1940.41,1646.49 	"/>
	<line class="st0" x1="1053.29" y1="3129.25" x2="647.22" y2="3457.51"/>
	<line class="st0" x1="959.91" y1="2836.38" x2="664.91" y2="3130.5"/>
	<line class="st0" x1="2081.89" y1="3335.83" x2="1752.24" y2="3103.79"/>
	<line class="st0" x1="664.91" y1="3130.5" x2="493.01" y2="3385.36"/>
	<line class="st0" x1="1368.8" y1="2602.93" x2="1324.94" y2="2409.1"/>
	<line class="st0" x1="2545.97" y1="3406.58" x2="2537.48" y2="3480.14"/>
	<line class="st0" x1="3162.85" y1="3485.8" x2="3140.22" y2="3439.11"/>
	<line class="st0" x1="3277.45" y1="3226.88" x2="3184.07" y2="3376.87"/>
	<line class="st0" x1="2630.86" y1="2757.16" x2="2911.01" y2="2830.72"/>
	<line class="st0" x1="3444.4" y1="3454.68" x2="3278.86" y2="3222.64"/>
	<line class="st0" x1="1902.89" y1="459.66" x2="1922.02" y2="559.28"/>
	<polygon class="st0" points="2043.69,2078.03 1999.83,2018.6 2046.52,1983.22 2083.31,2027.09 	"/>
	<line class="st0" x1="2040.87" y1="2121.88" x2="2043.69" y2="2078.03"/>
	<line class="st0" x1="1999.83" y1="2018.6" x2="1951.73" y2="2063.87"/>
	<line class="st0" x1="1987.1" y1="1949.26" x2="1999.83" y2="2018.6"/>
	<line class="st0" x1="2052.18" y1="1929.46" x2="2046.52" y2="1983.22"/>
	<line class="st0" x1="2120.09" y1="2027.09" x2="2083.31" y2="2027.09"/>
	<polygon class="st0" points="2063.5,2683.57 2113.03,2660.94 2134.25,2713.29 2079.07,2724.61 	"/>
	<polygon class="st0" points="2618.13,2870.33 2603.97,2832.13 2553.04,2849.11 2578.5,2895.8 	"/>
	<polygon class="st0" points="3074.42,3385.36 3073,3345.73 3110.5,3328.04 3133.14,3366.95 3116.87,3398.09 	"/>
	<line class="st0" x1="2125.76" y1="2612.84" x2="2113.03" y2="2660.94"/>
	<line class="st0" x1="2025.3" y1="2653.86" x2="2063.5" y2="2683.57"/>
	<line class="st0" x1="2076.23" y1="2726.02" x2="2033.79" y2="2744.42"/>
	<line class="st0" x1="2132.82" y1="2714.71" x2="2165.37" y2="2745.83"/>
	<line class="st0" x1="2628.03" y1="2758.57" x2="2603.97" y2="2832.13"/>
	<line class="st0" x1="2678.96" y1="2891.56" x2="2618.13" y2="2870.33"/>
	<line class="st0" x1="2578.5" y1="2895.8" x2="2570.02" y2="2942.49"/>
	<polyline class="st0" points="2553.04,2849.11 2478.06,2847.7 2477.35,3233.25 	"/>
	<line class="st0" x1="3124.65" y1="3282.06" x2="3110.5" y2="3327.34"/>
	<line class="st0" x1="3138.79" y1="3439.11" x2="3118.28" y2="3392.42"/>
	<line class="st0" x1="3071.59" y1="3386.76" x2="3036.92" y2="3430.62"/>
	<line class="st0" x1="3075.12" y1="3348.56" x2="3027.02" y2="3341.48"/>
	<line class="st0" x1="3184.07" y1="3383.93" x2="3130.3" y2="3365.54"/>
	<polygon class="st0" points="1970.12,1615.37 1964.46,1568.67 2010.84,1570.71 2019.65,1608.29 	"/>
	<line class="st0" x1="1924.84" y1="1561.59" x2="1964.46" y2="1568.67"/>
	<line class="st0" x1="2025.3" y1="1524.8" x2="2010.84" y2="1570.71"/>
	<line class="st0" x1="2028.14" y1="1657.81" x2="2019.65" y2="1608.29"/>
	<line class="st0" x1="1971.53" y1="1613.94" x2="1943.24" y2="1643.65"/>
	<line class="st0" x1="2036.62" y1="2246.38" x2="2098.87" y2="2099.25"/>
	<line class="st0" x1="1886.64" y1="2911.37" x2="1756.48" y2="3100.97"/>
	<line class="st0" x1="1904.33" y1="2178.47" x2="1790.44" y2="2059.62"/>
	<line class="st0" x1="1897.96" y1="2181.3" x2="1668.75" y2="2283.17"/>
	<line class="st0" x1="3038.34" y1="3429.21" x2="2690.29" y2="3565.04"/>
	<line class="st0" x1="3445.82" y1="3236.79" x2="3281.7" y2="3219.82"/>
	<line class="st0" x1="1606.5" y1="3183.02" x2="1060.37" y2="3129.25"/>
	<line class="st0" x1="2551.63" y1="2622.74" x2="2628.03" y2="2758.57"/>
</g>
</svg>
